<svg xmlns="http://www.w3.org/2000/svg" width="1160" height="596" viewBox="0 0 1160 596" font-family='-apple-system,BlinkMacSystemFont,"PingFang SC","Hiragino Sans GB","Microsoft YaHei","Noto Sans SC","Source Han Sans SC",sans-serif' role="img"><defs><marker id="arrow-line" viewBox="0 0 10 10" refX="8.5" refY="5" markerWidth="7" markerHeight="7" orient="auto-start-reverse"><path d="M1.5,1.5 L8.5,5 L1.5,8.5" fill="none" stroke="#6d7684" stroke-width="1.6" stroke-linecap="round" stroke-linejoin="round"/></marker><marker id="arrow-accent" viewBox="0 0 10 10" refX="8.5" refY="5" markerWidth="7" markerHeight="7" orient="auto-start-reverse"><path d="M1.5,1.5 L8.5,5 L1.5,8.5" fill="none" stroke="#9a95f0" stroke-width="1.6" stroke-linecap="round" stroke-linejoin="round"/></marker><marker id="arrow-warn" viewBox="0 0 10 10" refX="8.5" refY="5" markerWidth="7" markerHeight="7" orient="auto-start-reverse"><path d="M1.5,1.5 L8.5,5 L1.5,8.5" fill="none" stroke="#e0a848" stroke-width="1.6" stroke-linecap="round" stroke-linejoin="round"/></marker></defs><rect width="1160" height="596" fill="#0d1117"/><rect x="52" y="34" width="1056" height="148" rx="14" fill="#12171f" stroke="#232b36" stroke-width="1"/><rect x="52" y="384" width="1056" height="148" rx="14" fill="#12171f" stroke="#232b36" stroke-width="1"/><rect x="72" y="46" width="30" height="20" rx="6" fill="#9a95f0"/><text x="87" y="60.5" fill="#0d1117" font-size="11.5" font-weight="700" text-anchor="middle">A</text><text x="112" y="60.5" fill="#e4eaf2" font-size="12.5" font-weight="600" text-anchor="start" letter-spacing="0.3">本次研究与用户决策</text><rect x="72" y="396" width="30" height="20" rx="6" fill="#98a1b0"/><text x="87" y="410.5" fill="#0d1117" font-size="11.5" font-weight="700" text-anchor="middle">B</text><text x="112" y="410.5" fill="#e4eaf2" font-size="12.5" font-weight="600" text-anchor="start" letter-spacing="0.3">结果评估与规则学习</text><rect x="72" y="76" width="172" height="92" rx="9" fill="#171d26" stroke="#2f3846" stroke-width="1.1"/><rect x="86" y="89" width="24" height="18" rx="5" fill="#9a95f0"/><text x="98" y="102" fill="#0d1117" font-size="11" font-weight="700" text-anchor="middle">01</text><text x="86" y="127" fill="#e4eaf2" font-size="13.5" font-weight="600" text-anchor="start">可信事实</text><text x="86" y="146" fill="#98a1b0" font-size="11" font-weight="400" text-anchor="start">成交 · 行情 · 公司</text><rect x="272" y="76" width="172" height="92" rx="9" fill="#171d26" stroke="#2f3846" stroke-width="1.1"/><rect x="286" y="89" width="24" height="18" rx="5" fill="#9a95f0"/><text x="298" y="102" fill="#0d1117" font-size="11" font-weight="700" text-anchor="middle">02</text><text x="286" y="127" fill="#e4eaf2" font-size="13.5" font-weight="600" text-anchor="start">证据门禁</text><text x="286" y="146" fill="#98a1b0" font-size="11" font-weight="400" text-anchor="start">身份 · 时点 · 来源</text><rect x="472" y="76" width="172" height="92" rx="9" fill="#171d26" stroke="#2f3846" stroke-width="1.1"/><rect x="486" y="89" width="24" height="18" rx="5" fill="#9a95f0"/><text x="498" y="102" fill="#0d1117" font-size="11" font-weight="700" text-anchor="middle">03</text><text x="486" y="127" fill="#e4eaf2" font-size="13.5" font-weight="600" text-anchor="start">交叉研究</text><text x="486" y="146" fill="#98a1b0" font-size="11" font-weight="400" text-anchor="start">趋势 · 估值 · 风险</text><rect x="672" y="76" width="172" height="92" rx="9" fill="#171d26" stroke="#2f3846" stroke-width="1.1"/><rect x="686" y="89" width="24" height="18" rx="5" fill="#9a95f0"/><text x="698" y="102" fill="#0d1117" font-size="11" font-weight="700" text-anchor="middle">04</text><text x="686" y="127" fill="#e4eaf2" font-size="13.5" font-weight="600" text-anchor="start">条件式建议</text><text x="686" y="146" fill="#98a1b0" font-size="11" font-weight="400" text-anchor="start">动作 · 触发 · 禁止</text><rect x="872" y="76" width="172" height="92" rx="9" fill="#171d26" stroke="#2f3846" stroke-width="1.1"/><rect x="886" y="89" width="24" height="18" rx="5" fill="#9a95f0"/><text x="898" y="102" fill="#0d1117" font-size="11" font-weight="700" text-anchor="middle">05</text><text x="886" y="127" fill="#e4eaf2" font-size="13.5" font-weight="600" text-anchor="start">用户决策</text><text x="886" y="146" fill="#98a1b0" font-size="11" font-weight="400" text-anchor="start">最终决定权</text><path d="M248,122 L268,122" fill="none" stroke="#6d7684" stroke-width="1.4" stroke-linecap="round" marker-end="url(#arrow-line)"/><path d="M448,122 L468,122" fill="none" stroke="#6d7684" stroke-width="1.4" stroke-linecap="round" marker-end="url(#arrow-line)"/><path d="M648,122 L668,122" fill="none" stroke="#6d7684" stroke-width="1.4" stroke-linecap="round" marker-end="url(#arrow-line)"/><path d="M848,122 L868,122" fill="none" stroke="#6d7684" stroke-width="1.4" stroke-linecap="round" marker-end="url(#arrow-line)"/><text x="458" y="110" fill="#6d7684" font-size="10.5" font-weight="400" text-anchor="middle">通过</text><rect x="72" y="426" width="172" height="92" rx="9" fill="#171d26" stroke="#43ba7f" stroke-width="1.4"/><rect x="86" y="439" width="24" height="18" rx="5" fill="#43ba7f"/><text x="98" y="452" fill="#0d1117" font-size="11" font-weight="700" text-anchor="middle">10</text><text x="86" y="477" fill="#43ba7f" font-size="13.5" font-weight="600" text-anchor="start">已批准规则</text><text x="86" y="496" fill="#98a1b0" font-size="11" font-weight="400" text-anchor="start">过门禁 · 可回滚</text><rect x="272" y="426" width="172" height="92" rx="9" fill="#171d26" stroke="#2f3846" stroke-width="1.1"/><rect x="286" y="439" width="24" height="18" rx="5" fill="#98a1b0"/><text x="298" y="452" fill="#0d1117" font-size="11" font-weight="700" text-anchor="middle">09</text><text x="286" y="477" fill="#e4eaf2" font-size="13.5" font-weight="600" text-anchor="start">时间顺序验证</text><text x="286" y="496" fill="#98a1b0" font-size="11" font-weight="400" text-anchor="start">样本 · 成本 · 回撤</text><rect x="472" y="426" width="172" height="92" rx="9" fill="#171d26" stroke="#2f3846" stroke-width="1.1"/><rect x="486" y="439" width="24" height="18" rx="5" fill="#98a1b0"/><text x="498" y="452" fill="#0d1117" font-size="11" font-weight="700" text-anchor="middle">08</text><text x="486" y="477" fill="#e4eaf2" font-size="13.5" font-weight="600" text-anchor="start">案例记忆</text><text x="486" y="496" fill="#98a1b0" font-size="11" font-weight="400" text-anchor="start">因子 · 环境 · 反证</text><rect x="672" y="426" width="172" height="92" rx="9" fill="#171d26" stroke="#2f3846" stroke-width="1.1"/><rect x="686" y="439" width="24" height="18" rx="5" fill="#98a1b0"/><text x="698" y="452" fill="#0d1117" font-size="11" font-weight="700" text-anchor="middle">07</text><text x="686" y="477" fill="#e4eaf2" font-size="13.5" font-weight="600" text-anchor="start">固定窗口评估</text><text x="686" y="496" fill="#98a1b0" font-size="11" font-weight="400" text-anchor="start">实际 / 持有 / 建议</text><rect x="872" y="426" width="172" height="92" rx="9" fill="#171d26" stroke="#2f3846" stroke-width="1.1"/><rect x="886" y="439" width="24" height="18" rx="5" fill="#98a1b0"/><text x="898" y="452" fill="#0d1117" font-size="11" font-weight="700" text-anchor="middle">06</text><text x="886" y="477" fill="#e4eaf2" font-size="13.5" font-weight="600" text-anchor="start">结果留痕</text><text x="886" y="496" fill="#98a1b0" font-size="11" font-weight="400" text-anchor="start">只记录，不推断因果</text><path d="M268,472 L248,472" fill="none" stroke="#6d7684" stroke-width="1.4" stroke-linecap="round" marker-end="url(#arrow-line)"/><path d="M468,472 L448,472" fill="none" stroke="#6d7684" stroke-width="1.4" stroke-linecap="round" marker-end="url(#arrow-line)"/><path d="M668,472 L648,472" fill="none" stroke="#6d7684" stroke-width="1.4" stroke-linecap="round" marker-end="url(#arrow-line)"/><path d="M868,472 L848,472" fill="none" stroke="#6d7684" stroke-width="1.4" stroke-linecap="round" marker-end="url(#arrow-line)"/><path d="M958,172 L958,420" fill="none" stroke="#6d7684" stroke-width="1.4" stroke-linecap="round" marker-end="url(#arrow-line)"/><text x="974" y="272" fill="#6d7684" font-size="10.5" font-weight="400" text-anchor="start">无论是否执行，</text><text x="974" y="287" fill="#6d7684" font-size="10.5" font-weight="400" text-anchor="start">结果都要留痕</text><path d="M358,172 L358,216" fill="none" stroke="#e0a848" stroke-width="1.4" stroke-linecap="round" marker-end="url(#arrow-warn)" stroke-dasharray="5 4"/><text x="368" y="194" fill="#e0a848" font-size="10.5" font-weight="400" text-anchor="start">不足</text><rect x="240" y="222" width="236" height="66" rx="9" fill="#171d26" stroke="#e0a848" stroke-width="1.4"/><text x="254" y="249" fill="#e0a848" font-size="13.5" font-weight="600" text-anchor="start">失败即停</text><text x="254" y="269" fill="#98a1b0" font-size="11" font-weight="400" text-anchor="start">不再输出方向性建议</text><path d="M68,472 L48,472 Q36,472 36,460 L36,348 Q36,336 48,336 L546,336 Q558,336 558,324 L558,174" fill="none" stroke="#9a95f0" stroke-width="1.4" stroke-linecap="round" marker-end="url(#arrow-accent)" stroke-dasharray="6 5"/><text x="542" y="327" fill="#9a95f0" font-size="11" font-weight="600" text-anchor="end">仅已批准规则可反馈</text><path d="M52,570 L78,570" stroke="#6d7684" stroke-width="1.4" stroke-linecap="round" marker-end="url(#arrow-line)"/><text x="92" y="574" fill="#98a1b0" font-size="11" font-weight="400" text-anchor="start">事实与结果流向</text><path d="M172.2,570 L198.2,570" stroke="#9a95f0" stroke-width="1.4" stroke-linecap="round" stroke-dasharray="5 4" marker-end="url(#arrow-accent)"/><text x="212.2" y="574" fill="#98a1b0" font-size="11" font-weight="400" text-anchor="start">受治理的反馈</text><text x="1108" y="574" fill="#6d7684" font-size="11" font-weight="400" text-anchor="end">任何情况下都不自动下单。</text></svg>
