<svg xmlns="http://www.w3.org/2000/svg" width="1160" height="760" viewBox="0 0 1160 760" font-family='-apple-system,BlinkMacSystemFont,"PingFang SC","Hiragino Sans GB","Microsoft YaHei","Noto Sans SC","Source Han Sans SC",sans-serif' role="img"><defs><marker id="arrow-line" viewBox="0 0 10 10" refX="8.5" refY="5" markerWidth="7" markerHeight="7" orient="auto-start-reverse"><path d="M1.5,1.5 L8.5,5 L1.5,8.5" fill="none" stroke="#9aa3b2" stroke-width="1.6" stroke-linecap="round" stroke-linejoin="round"/></marker><marker id="arrow-accent" viewBox="0 0 10 10" refX="8.5" refY="5" markerWidth="7" markerHeight="7" orient="auto-start-reverse"><path d="M1.5,1.5 L8.5,5 L1.5,8.5" fill="none" stroke="#4a44c9" stroke-width="1.6" stroke-linecap="round" stroke-linejoin="round"/></marker><marker id="arrow-warn" viewBox="0 0 10 10" refX="8.5" refY="5" markerWidth="7" markerHeight="7" orient="auto-start-reverse"><path d="M1.5,1.5 L8.5,5 L1.5,8.5" fill="none" stroke="#a75b12" stroke-width="1.6" stroke-linecap="round" stroke-linejoin="round"/></marker></defs><rect width="1160" height="760" fill="#ffffff"/><rect x="76" y="34" width="1008" height="122" rx="14" fill="#f7f8fa" stroke="#e6e8ec" stroke-width="1"/><rect x="96" y="46" width="30" height="20" rx="6" fill="#4a44c9"/><text x="111" y="60.5" fill="#ffffff" font-size="11.5" font-weight="700" text-anchor="middle">L4</text><text x="136" y="60.5" fill="#12161f" font-size="12.5" font-weight="600" text-anchor="start" letter-spacing="0.3">使用层</text><text x="1064" y="60.5" fill="#8b94a3" font-size="11" font-weight="400" text-anchor="end">只读</text><rect x="76" y="218" width="1008" height="122" rx="14" fill="#f7f8fa" stroke="#e6e8ec" stroke-width="1"/><rect x="96" y="230" width="30" height="20" rx="6" fill="#4a44c9"/><text x="111" y="244.5" fill="#ffffff" font-size="11.5" font-weight="700" text-anchor="middle">L3</text><text x="136" y="244.5" fill="#12161f" font-size="12.5" font-weight="600" text-anchor="start" letter-spacing="0.3">治理层</text><text x="1064" y="244.5" fill="#8b94a3" font-size="11" font-weight="400" text-anchor="end">门禁 + 用户批准</text><rect x="76" y="380" width="1008" height="122" rx="14" fill="#f7f8fa" stroke="#e6e8ec" stroke-width="1"/><rect x="96" y="392" width="30" height="20" rx="6" fill="#4a44c9"/><text x="111" y="406.5" fill="#ffffff" font-size="11.5" font-weight="700" text-anchor="middle">L2</text><text x="136" y="406.5" fill="#12161f" font-size="12.5" font-weight="600" text-anchor="start" letter-spacing="0.3">派生层</text><text x="1064" y="406.5" fill="#8b94a3" font-size="11" font-weight="400" text-anchor="end">重建生成，不手工修改</text><rect x="76" y="542" width="1008" height="122" rx="14" fill="#f7f8fa" stroke="#e6e8ec" stroke-width="1"/><rect x="96" y="554" width="30" height="20" rx="6" fill="#4a44c9"/><text x="111" y="568.5" fill="#ffffff" font-size="11.5" font-weight="700" text-anchor="middle">L1</text><text x="136" y="568.5" fill="#12161f" font-size="12.5" font-weight="600" text-anchor="start" letter-spacing="0.3">权威层</text><text x="1064" y="568.5" fill="#8b94a3" font-size="11" font-weight="400" text-anchor="end">只追加</text><rect x="96" y="78" width="304" height="64" rx="9" fill="#ffffff" stroke="#d3d7de" stroke-width="1.1"/><text x="110" y="105" fill="#12161f" font-size="13.5" font-weight="600" text-anchor="start">决策上下文</text><text x="110" y="125" fill="#5b6472" font-size="11" font-weight="400" text-anchor="start">当前事实优先，历史仅作参考</text><rect x="428" y="78" width="304" height="64" rx="9" fill="#ffffff" stroke="#d3d7de" stroke-width="1.1"/><text x="442" y="105" fill="#12161f" font-size="13.5" font-weight="600" text-anchor="start">多角色交叉审阅</text><text x="442" y="125" fill="#5b6472" font-size="11" font-weight="400" text-anchor="start">事实核验 · 基本面 · 反方风控</text><rect x="760" y="78" width="304" height="64" rx="9" fill="#ffffff" stroke="#d3d7de" stroke-width="1.1"/><text x="774" y="105" fill="#12161f" font-size="13.5" font-weight="600" text-anchor="start">下一次研究</text><text x="774" y="125" fill="#5b6472" font-size="11" font-weight="400" text-anchor="start">重新评估，不沿用结论</text><rect x="96" y="262" width="304" height="64" rx="9" fill="#ffffff" stroke="#d3d7de" stroke-width="1.1"/><text x="110" y="289" fill="#12161f" font-size="13.5" font-weight="600" text-anchor="start">候选经验</text><text x="110" y="309" fill="#5b6472" font-size="11" font-weight="400" text-anchor="start">正例与反例同时保留</text><rect x="428" y="262" width="304" height="64" rx="9" fill="#ffffff" stroke="#d3d7de" stroke-width="1.1"/><text x="442" y="289" fill="#12161f" font-size="13.5" font-weight="600" text-anchor="start">验证门禁</text><text x="442" y="309" fill="#5b6472" font-size="11" font-weight="400" text-anchor="start">样本 · 成本 · 回撤</text><rect x="760" y="262" width="304" height="64" rx="9" fill="#ffffff" stroke="#0a6b4d" stroke-width="1.4"/><text x="774" y="289" fill="#0a6b4d" font-size="13.5" font-weight="600" text-anchor="start">已批准规则</text><text x="774" y="309" fill="#5b6472" font-size="11" font-weight="400" text-anchor="start">达标并经用户确认</text><path d="M404,294 L424,294" fill="none" stroke="#9aa3b2" stroke-width="1.4" stroke-linecap="round" marker-end="url(#arrow-line)"/><path d="M736,294 L756,294" fill="none" stroke="#9aa3b2" stroke-width="1.4" stroke-linecap="round" marker-end="url(#arrow-line)"/><rect x="96" y="424" width="304" height="64" rx="9" fill="#ffffff" stroke="#d3d7de" stroke-width="1.1"/><text x="110" y="451" fill="#12161f" font-size="13.5" font-weight="600" text-anchor="start">当前持仓</text><text x="110" y="471" fill="#5b6472" font-size="11" font-weight="400" text-anchor="start">由已核验成交重放得到</text><rect x="428" y="424" width="304" height="64" rx="9" fill="#ffffff" stroke="#d3d7de" stroke-width="1.1"/><text x="442" y="451" fill="#12161f" font-size="13.5" font-weight="600" text-anchor="start">结果矩阵</text><text x="442" y="471" fill="#5b6472" font-size="11" font-weight="400" text-anchor="start">实际 / 持有 / 仅建议</text><rect x="760" y="424" width="304" height="64" rx="9" fill="#ffffff" stroke="#d3d7de" stroke-width="1.1"/><text x="774" y="451" fill="#12161f" font-size="13.5" font-weight="600" text-anchor="start">相似案例索引</text><text x="774" y="471" fill="#5b6472" font-size="11" font-weight="400" text-anchor="start">证券 · 因子 · 环境</text><rect x="96" y="586" width="304" height="64" rx="9" fill="#ffffff" stroke="#d3d7de" stroke-width="1.1"/><text x="110" y="613" fill="#12161f" font-size="13.5" font-weight="600" text-anchor="start">已核验成交</text><text x="110" y="633" fill="#5b6472" font-size="11" font-weight="400" text-anchor="start">券商证据，身份已核验</text><rect x="428" y="586" width="304" height="64" rx="9" fill="#ffffff" stroke="#d3d7de" stroke-width="1.1"/><text x="442" y="613" fill="#12161f" font-size="13.5" font-weight="600" text-anchor="start">决策 episode</text><text x="442" y="633" fill="#5b6472" font-size="11" font-weight="400" text-anchor="start">当时的事实、理由与动作</text><rect x="760" y="586" width="304" height="64" rx="9" fill="#ffffff" stroke="#d3d7de" stroke-width="1.1"/><text x="774" y="613" fill="#12161f" font-size="13.5" font-weight="600" text-anchor="start">结果事件</text><text x="774" y="633" fill="#5b6472" font-size="11" font-weight="400" text-anchor="start">固定窗口，无未来数据</text><path d="M580,538 L580,508" fill="none" stroke="#9aa3b2" stroke-width="1.4" stroke-linecap="round" marker-end="url(#arrow-line)"/><text x="596" y="526" fill="#5b6472" font-size="11" font-weight="400" text-anchor="start">确定性重建</text><path d="M580,376 L580,346" fill="none" stroke="#9aa3b2" stroke-width="1.4" stroke-linecap="round" marker-end="url(#arrow-line)"/><text x="596" y="364" fill="#5b6472" font-size="11" font-weight="400" text-anchor="start">结果沉淀为候选</text><path d="M912,214 L912,200 Q912,188 900,188 L376,188 Q364,188 364,176 L364,162" fill="none" stroke="#0a6b4d" stroke-width="1.4" stroke-linecap="round" marker-end="url(#arrow-line)"/><text x="928" y="204" fill="#0a6b4d" font-size="11" font-weight="600" text-anchor="start">可以约束动作</text><path d="M160,258 L160,202" fill="none" stroke="#a75b12" stroke-width="1.4" stroke-dasharray="5 4" stroke-linecap="round"/><circle cx="160" cy="190" r="8.5" fill="none" stroke="#a75b12" stroke-width="1.6"/><path d="M154.73,195.27 L165.27,184.73" stroke="#a75b12" stroke-width="1.6" stroke-linecap="round"/><text x="178" y="194" fill="#a75b12" font-size="11" font-weight="600" text-anchor="start">只提供上下文，不能约束动作</text><path d="M70,456 L52,456 Q40,456 40,444 L40,122 Q40,110 52,110 L90,110" fill="none" stroke="#9aa3b2" stroke-width="1.4" stroke-linecap="round" marker-end="url(#arrow-line)"/><text x="30" y="267" fill="#5b6472" font-size="11" font-weight="400" text-anchor="middle" transform="rotate(-90 30 267)">当前状态优先</text><path d="M1068,110 L1108,110 Q1120,110 1120,122 L1120,688 Q1120,700 1108,700 L592,700 Q580,700 580,688 L580,656" fill="none" stroke="#4a44c9" stroke-width="1.4" stroke-linecap="round" marker-end="url(#arrow-accent)" stroke-dasharray="6 5"/><text x="1104" y="692" fill="#4a44c9" font-size="11" font-weight="600" text-anchor="end">每次判断都追加一条新记录</text><path d="M76,736 L102,736" stroke="#9aa3b2" stroke-width="1.4" stroke-linecap="round" marker-end="url(#arrow-line)"/><text x="116" y="740" fill="#5b6472" font-size="11" font-weight="400" text-anchor="start">派生与流向</text><path d="M183,736 L209,736" stroke="#4a44c9" stroke-width="1.4" stroke-linecap="round" stroke-dasharray="5 4" marker-end="url(#arrow-accent)"/><text x="223" y="740" fill="#5b6472" font-size="11" font-weight="400" text-anchor="start">反馈与回写</text><circle cx="303" cy="736" r="8.5" fill="none" stroke="#a75b12" stroke-width="1.6"/><path d="M297.73,741.27 L308.27,730.73" stroke="#a75b12" stroke-width="1.6" stroke-linecap="round"/><text x="330" y="740" fill="#5b6472" font-size="11" font-weight="400" text-anchor="start">刻意封死的路径</text></svg>
