<svg xmlns="http://www.w3.org/2000/svg" width="1160" height="760" viewBox="0 0 1160 760" font-family='-apple-system,BlinkMacSystemFont,"Segoe UI","Helvetica Neue",Arial,sans-serif' role="img"><defs><marker id="arrow-line" viewBox="0 0 10 10" refX="8.5" refY="5" markerWidth="7" markerHeight="7" orient="auto-start-reverse"><path d="M1.5,1.5 L8.5,5 L1.5,8.5" fill="none" stroke="#9aa3b2" stroke-width="1.6" stroke-linecap="round" stroke-linejoin="round"/></marker><marker id="arrow-accent" viewBox="0 0 10 10" refX="8.5" refY="5" markerWidth="7" markerHeight="7" orient="auto-start-reverse"><path d="M1.5,1.5 L8.5,5 L1.5,8.5" fill="none" stroke="#4a44c9" stroke-width="1.6" stroke-linecap="round" stroke-linejoin="round"/></marker><marker id="arrow-warn" viewBox="0 0 10 10" refX="8.5" refY="5" markerWidth="7" markerHeight="7" orient="auto-start-reverse"><path d="M1.5,1.5 L8.5,5 L1.5,8.5" fill="none" stroke="#a75b12" stroke-width="1.6" stroke-linecap="round" stroke-linejoin="round"/></marker></defs><rect width="1160" height="760" fill="#ffffff"/><rect x="76" y="34" width="1008" height="122" rx="14" fill="#f7f8fa" stroke="#e6e8ec" stroke-width="1"/><rect x="96" y="46" width="30" height="20" rx="6" fill="#4a44c9"/><text x="111" y="60.5" fill="#ffffff" font-size="11.5" font-weight="700" text-anchor="middle">L4</text><text x="136" y="60.5" fill="#12161f" font-size="12.5" font-weight="600" text-anchor="start" letter-spacing="0.3">Use</text><text x="1064" y="60.5" fill="#8b94a3" font-size="11" font-weight="400" text-anchor="end">read-only</text><rect x="76" y="218" width="1008" height="122" rx="14" fill="#f7f8fa" stroke="#e6e8ec" stroke-width="1"/><rect x="96" y="230" width="30" height="20" rx="6" fill="#4a44c9"/><text x="111" y="244.5" fill="#ffffff" font-size="11.5" font-weight="700" text-anchor="middle">L3</text><text x="136" y="244.5" fill="#12161f" font-size="12.5" font-weight="600" text-anchor="start" letter-spacing="0.3">Governance</text><text x="1064" y="244.5" fill="#8b94a3" font-size="11" font-weight="400" text-anchor="end">gate + user approval</text><rect x="76" y="380" width="1008" height="122" rx="14" fill="#f7f8fa" stroke="#e6e8ec" stroke-width="1"/><rect x="96" y="392" width="30" height="20" rx="6" fill="#4a44c9"/><text x="111" y="406.5" fill="#ffffff" font-size="11.5" font-weight="700" text-anchor="middle">L2</text><text x="136" y="406.5" fill="#12161f" font-size="12.5" font-weight="600" text-anchor="start" letter-spacing="0.3">Derived</text><text x="1064" y="406.5" fill="#8b94a3" font-size="11" font-weight="400" text-anchor="end">rebuilt, never hand-edited</text><rect x="76" y="542" width="1008" height="122" rx="14" fill="#f7f8fa" stroke="#e6e8ec" stroke-width="1"/><rect x="96" y="554" width="30" height="20" rx="6" fill="#4a44c9"/><text x="111" y="568.5" fill="#ffffff" font-size="11.5" font-weight="700" text-anchor="middle">L1</text><text x="136" y="568.5" fill="#12161f" font-size="12.5" font-weight="600" text-anchor="start" letter-spacing="0.3">Source of truth</text><text x="1064" y="568.5" fill="#8b94a3" font-size="11" font-weight="400" text-anchor="end">append-only</text><rect x="96" y="78" width="304" height="64" rx="9" fill="#ffffff" stroke="#d3d7de" stroke-width="1.1"/><text x="110" y="105" fill="#12161f" font-size="13.5" font-weight="600" text-anchor="start">Decision context</text><text x="110" y="125" fill="#5b6472" font-size="11" font-weight="400" text-anchor="start">Live facts first, history as reference</text><rect x="428" y="78" width="304" height="64" rx="9" fill="#ffffff" stroke="#d3d7de" stroke-width="1.1"/><text x="442" y="105" fill="#12161f" font-size="13.5" font-weight="600" text-anchor="start">Multi-role review</text><text x="442" y="125" fill="#5b6472" font-size="11" font-weight="400" text-anchor="start">Facts · fundamentals · red team</text><rect x="760" y="78" width="304" height="64" rx="9" fill="#ffffff" stroke="#d3d7de" stroke-width="1.1"/><text x="774" y="105" fill="#12161f" font-size="13.5" font-weight="600" text-anchor="start">Next research pass</text><text x="774" y="125" fill="#5b6472" font-size="11" font-weight="400" text-anchor="start">Re-evaluated, never inherited</text><rect x="96" y="262" width="304" height="64" rx="9" fill="#ffffff" stroke="#d3d7de" stroke-width="1.1"/><text x="110" y="289" fill="#12161f" font-size="13.5" font-weight="600" text-anchor="start">Candidate lessons</text><text x="110" y="309" fill="#5b6472" font-size="11" font-weight="400" text-anchor="start">Confirming and counter cases kept</text><rect x="428" y="262" width="304" height="64" rx="9" fill="#ffffff" stroke="#d3d7de" stroke-width="1.1"/><text x="442" y="289" fill="#12161f" font-size="13.5" font-weight="600" text-anchor="start">Promotion gate</text><text x="442" y="309" fill="#5b6472" font-size="11" font-weight="400" text-anchor="start">Sample · cost · drawdown</text><rect x="760" y="262" width="304" height="64" rx="9" fill="#ffffff" stroke="#0a6b4d" stroke-width="1.4"/><text x="774" y="289" fill="#0a6b4d" font-size="13.5" font-weight="600" text-anchor="start">Approved rules</text><text x="774" y="309" fill="#5b6472" font-size="11" font-weight="400" text-anchor="start">Passed and user confirmed</text><path d="M404,294 L424,294" fill="none" stroke="#9aa3b2" stroke-width="1.4" stroke-linecap="round" marker-end="url(#arrow-line)"/><path d="M736,294 L756,294" fill="none" stroke="#9aa3b2" stroke-width="1.4" stroke-linecap="round" marker-end="url(#arrow-line)"/><rect x="96" y="424" width="304" height="64" rx="9" fill="#ffffff" stroke="#d3d7de" stroke-width="1.1"/><text x="110" y="451" fill="#12161f" font-size="13.5" font-weight="600" text-anchor="start">Current positions</text><text x="110" y="471" fill="#5b6472" font-size="11" font-weight="400" text-anchor="start">Replayed from verified fills</text><rect x="428" y="424" width="304" height="64" rx="9" fill="#ffffff" stroke="#d3d7de" stroke-width="1.1"/><text x="442" y="451" fill="#12161f" font-size="13.5" font-weight="600" text-anchor="start">Outcome matrix</text><text x="442" y="471" fill="#5b6472" font-size="11" font-weight="400" text-anchor="start">Actual / hold / advice-only</text><rect x="760" y="424" width="304" height="64" rx="9" fill="#ffffff" stroke="#d3d7de" stroke-width="1.1"/><text x="774" y="451" fill="#12161f" font-size="13.5" font-weight="600" text-anchor="start">Similar-case index</text><text x="774" y="471" fill="#5b6472" font-size="11" font-weight="400" text-anchor="start">Security · factor · regime</text><rect x="96" y="586" width="304" height="64" rx="9" fill="#ffffff" stroke="#d3d7de" stroke-width="1.1"/><text x="110" y="613" fill="#12161f" font-size="13.5" font-weight="600" text-anchor="start">Verified fills</text><text x="110" y="633" fill="#5b6472" font-size="11" font-weight="400" text-anchor="start">Broker evidence, identity checked</text><rect x="428" y="586" width="304" height="64" rx="9" fill="#ffffff" stroke="#d3d7de" stroke-width="1.1"/><text x="442" y="613" fill="#12161f" font-size="13.5" font-weight="600" text-anchor="start">Decision episodes</text><text x="442" y="633" fill="#5b6472" font-size="11" font-weight="400" text-anchor="start">Facts and reasoning, as of then</text><rect x="760" y="586" width="304" height="64" rx="9" fill="#ffffff" stroke="#d3d7de" stroke-width="1.1"/><text x="774" y="613" fill="#12161f" font-size="13.5" font-weight="600" text-anchor="start">Outcome events</text><text x="774" y="633" fill="#5b6472" font-size="11" font-weight="400" text-anchor="start">Fixed windows, no lookahead</text><path d="M580,538 L580,508" fill="none" stroke="#9aa3b2" stroke-width="1.4" stroke-linecap="round" marker-end="url(#arrow-line)"/><text x="596" y="526" fill="#5b6472" font-size="11" font-weight="400" text-anchor="start">deterministic rebuild</text><path d="M580,376 L580,346" fill="none" stroke="#9aa3b2" stroke-width="1.4" stroke-linecap="round" marker-end="url(#arrow-line)"/><text x="596" y="364" fill="#5b6472" font-size="11" font-weight="400" text-anchor="start">outcomes become candidates</text><path d="M912,214 L912,200 Q912,188 900,188 L376,188 Q364,188 364,176 L364,162" fill="none" stroke="#0a6b4d" stroke-width="1.4" stroke-linecap="round" marker-end="url(#arrow-line)"/><text x="928" y="204" fill="#0a6b4d" font-size="11" font-weight="600" text-anchor="start">may constrain actions</text><path d="M160,258 L160,202" fill="none" stroke="#a75b12" stroke-width="1.4" stroke-dasharray="5 4" stroke-linecap="round"/><circle cx="160" cy="190" r="8.5" fill="none" stroke="#a75b12" stroke-width="1.6"/><path d="M154.73,195.27 L165.27,184.73" stroke="#a75b12" stroke-width="1.6" stroke-linecap="round"/><text x="178" y="194" fill="#a75b12" font-size="11" font-weight="600" text-anchor="start">context only — never binding</text><path d="M70,456 L52,456 Q40,456 40,444 L40,122 Q40,110 52,110 L90,110" fill="none" stroke="#9aa3b2" stroke-width="1.4" stroke-linecap="round" marker-end="url(#arrow-line)"/><text x="30" y="267" fill="#5b6472" font-size="11" font-weight="400" text-anchor="middle" transform="rotate(-90 30 267)">live state takes precedence</text><path d="M1068,110 L1108,110 Q1120,110 1120,122 L1120,688 Q1120,700 1108,700 L592,700 Q580,700 580,688 L580,656" fill="none" stroke="#4a44c9" stroke-width="1.4" stroke-linecap="round" marker-end="url(#arrow-accent)" stroke-dasharray="6 5"/><text x="1104" y="692" fill="#4a44c9" font-size="11" font-weight="600" text-anchor="end">every pass appends a new episode</text><path d="M76,736 L102,736" stroke="#9aa3b2" stroke-width="1.4" stroke-linecap="round" marker-end="url(#arrow-line)"/><text x="116" y="740" fill="#5b6472" font-size="11" font-weight="400" text-anchor="start">Derivation and flow</text><path d="M275.4,736 L301.4,736" stroke="#4a44c9" stroke-width="1.4" stroke-linecap="round" stroke-dasharray="5 4" marker-end="url(#arrow-accent)"/><text x="315.4" y="740" fill="#5b6472" font-size="11" font-weight="400" text-anchor="start">Feedback and write-back</text><circle cx="514.2" cy="736" r="8.5" fill="none" stroke="#a75b12" stroke-width="1.6"/><path d="M508.93,741.27 L519.47,730.73" stroke="#a75b12" stroke-width="1.6" stroke-linecap="round"/><text x="541.2" y="740" fill="#5b6472" font-size="11" font-weight="400" text-anchor="start">Path deliberately closed</text></svg>
