<svg xmlns="http://www.w3.org/2000/svg" width="1160" height="596" viewBox="0 0 1160 596" font-family='-apple-system,BlinkMacSystemFont,"Segoe UI","Helvetica Neue",Arial,sans-serif' role="img"><defs><marker id="arrow-line" viewBox="0 0 10 10" refX="8.5" refY="5" markerWidth="7" markerHeight="7" orient="auto-start-reverse"><path d="M1.5,1.5 L8.5,5 L1.5,8.5" fill="none" stroke="#9aa3b2" stroke-width="1.6" stroke-linecap="round" stroke-linejoin="round"/></marker><marker id="arrow-accent" viewBox="0 0 10 10" refX="8.5" refY="5" markerWidth="7" markerHeight="7" orient="auto-start-reverse"><path d="M1.5,1.5 L8.5,5 L1.5,8.5" fill="none" stroke="#4a44c9" stroke-width="1.6" stroke-linecap="round" stroke-linejoin="round"/></marker><marker id="arrow-warn" viewBox="0 0 10 10" refX="8.5" refY="5" markerWidth="7" markerHeight="7" orient="auto-start-reverse"><path d="M1.5,1.5 L8.5,5 L1.5,8.5" fill="none" stroke="#a75b12" stroke-width="1.6" stroke-linecap="round" stroke-linejoin="round"/></marker></defs><rect width="1160" height="596" fill="#ffffff"/><rect x="52" y="34" width="1056" height="148" rx="14" fill="#f7f8fa" stroke="#e6e8ec" stroke-width="1"/><rect x="52" y="384" width="1056" height="148" rx="14" fill="#f7f8fa" stroke="#e6e8ec" stroke-width="1"/><rect x="72" y="46" width="30" height="20" rx="6" fill="#4a44c9"/><text x="87" y="60.5" fill="#ffffff" font-size="11.5" font-weight="700" text-anchor="middle">A</text><text x="112" y="60.5" fill="#12161f" font-size="12.5" font-weight="600" text-anchor="start" letter-spacing="0.3">Research and user decision</text><rect x="72" y="396" width="30" height="20" rx="6" fill="#5b6472"/><text x="87" y="410.5" fill="#ffffff" font-size="11.5" font-weight="700" text-anchor="middle">B</text><text x="112" y="410.5" fill="#12161f" font-size="12.5" font-weight="600" text-anchor="start" letter-spacing="0.3">Outcome scoring and rule learning</text><rect x="72" y="76" width="172" height="92" rx="9" fill="#ffffff" stroke="#d3d7de" stroke-width="1.1"/><rect x="86" y="89" width="24" height="18" rx="5" fill="#4a44c9"/><text x="98" y="102" fill="#ffffff" font-size="11" font-weight="700" text-anchor="middle">01</text><text x="86" y="127" fill="#12161f" font-size="13.5" font-weight="600" text-anchor="start">Verified facts</text><text x="86" y="146" fill="#5b6472" font-size="11" font-weight="400" text-anchor="start">Fills · market · filings</text><rect x="272" y="76" width="172" height="92" rx="9" fill="#ffffff" stroke="#d3d7de" stroke-width="1.1"/><rect x="286" y="89" width="24" height="18" rx="5" fill="#4a44c9"/><text x="298" y="102" fill="#ffffff" font-size="11" font-weight="700" text-anchor="middle">02</text><text x="286" y="127" fill="#12161f" font-size="13.5" font-weight="600" text-anchor="start">Integrity gate</text><text x="286" y="146" fill="#5b6472" font-size="11" font-weight="400" text-anchor="start">Identity · time · source</text><rect x="472" y="76" width="172" height="92" rx="9" fill="#ffffff" stroke="#d3d7de" stroke-width="1.1"/><rect x="486" y="89" width="24" height="18" rx="5" fill="#4a44c9"/><text x="498" y="102" fill="#ffffff" font-size="11" font-weight="700" text-anchor="middle">03</text><text x="486" y="127" fill="#12161f" font-size="13.5" font-weight="600" text-anchor="start">Cross-review</text><text x="486" y="146" fill="#5b6472" font-size="11" font-weight="400" text-anchor="start">Trend · valuation · risk</text><rect x="672" y="76" width="172" height="92" rx="9" fill="#ffffff" stroke="#d3d7de" stroke-width="1.1"/><rect x="686" y="89" width="24" height="18" rx="5" fill="#4a44c9"/><text x="698" y="102" fill="#ffffff" font-size="11" font-weight="700" text-anchor="middle">04</text><text x="686" y="127" fill="#12161f" font-size="13.5" font-weight="600" text-anchor="start">Conditional advice</text><text x="686" y="146" fill="#5b6472" font-size="11" font-weight="400" text-anchor="start">Action · trigger · veto</text><rect x="872" y="76" width="172" height="92" rx="9" fill="#ffffff" stroke="#d3d7de" stroke-width="1.1"/><rect x="886" y="89" width="24" height="18" rx="5" fill="#4a44c9"/><text x="898" y="102" fill="#ffffff" font-size="11" font-weight="700" text-anchor="middle">05</text><text x="886" y="127" fill="#12161f" font-size="13.5" font-weight="600" text-anchor="start">User decides</text><text x="886" y="146" fill="#5b6472" font-size="11" font-weight="400" text-anchor="start">Final authority</text><path d="M248,122 L268,122" fill="none" stroke="#9aa3b2" stroke-width="1.4" stroke-linecap="round" marker-end="url(#arrow-line)"/><path d="M448,122 L468,122" fill="none" stroke="#9aa3b2" stroke-width="1.4" stroke-linecap="round" marker-end="url(#arrow-line)"/><path d="M648,122 L668,122" fill="none" stroke="#9aa3b2" stroke-width="1.4" stroke-linecap="round" marker-end="url(#arrow-line)"/><path d="M848,122 L868,122" fill="none" stroke="#9aa3b2" stroke-width="1.4" stroke-linecap="round" marker-end="url(#arrow-line)"/><text x="458" y="110" fill="#8b94a3" font-size="10.5" font-weight="400" text-anchor="middle">pass</text><rect x="72" y="426" width="172" height="92" rx="9" fill="#ffffff" stroke="#0a6b4d" stroke-width="1.4"/><rect x="86" y="439" width="24" height="18" rx="5" fill="#0a6b4d"/><text x="98" y="452" fill="#ffffff" font-size="11" font-weight="700" text-anchor="middle">10</text><text x="86" y="477" fill="#0a6b4d" font-size="13.5" font-weight="600" text-anchor="start">Approved rules</text><text x="86" y="496" fill="#5b6472" font-size="11" font-weight="400" text-anchor="start">Gate passed · reversible</text><rect x="272" y="426" width="172" height="92" rx="9" fill="#ffffff" stroke="#d3d7de" stroke-width="1.1"/><rect x="286" y="439" width="24" height="18" rx="5" fill="#5b6472"/><text x="298" y="452" fill="#ffffff" font-size="11" font-weight="700" text-anchor="middle">09</text><text x="286" y="477" fill="#12161f" font-size="13.5" font-weight="600" text-anchor="start">Temporal validation</text><text x="286" y="496" fill="#5b6472" font-size="11" font-weight="400" text-anchor="start">Sample · cost · drawdown</text><rect x="472" y="426" width="172" height="92" rx="9" fill="#ffffff" stroke="#d3d7de" stroke-width="1.1"/><rect x="486" y="439" width="24" height="18" rx="5" fill="#5b6472"/><text x="498" y="452" fill="#ffffff" font-size="11" font-weight="700" text-anchor="middle">08</text><text x="486" y="477" fill="#12161f" font-size="13.5" font-weight="600" text-anchor="start">Episode memory</text><text x="486" y="496" fill="#5b6472" font-size="11" font-weight="400" text-anchor="start">Factors, regime, counters</text><rect x="672" y="426" width="172" height="92" rx="9" fill="#ffffff" stroke="#d3d7de" stroke-width="1.1"/><rect x="686" y="439" width="24" height="18" rx="5" fill="#5b6472"/><text x="698" y="452" fill="#ffffff" font-size="11" font-weight="700" text-anchor="middle">07</text><text x="686" y="477" fill="#12161f" font-size="13.5" font-weight="600" text-anchor="start">Window scoring</text><text x="686" y="496" fill="#5b6472" font-size="11" font-weight="400" text-anchor="start">Actual / hold / advice</text><rect x="872" y="426" width="172" height="92" rx="9" fill="#ffffff" stroke="#d3d7de" stroke-width="1.1"/><rect x="886" y="439" width="24" height="18" rx="5" fill="#5b6472"/><text x="898" y="452" fill="#ffffff" font-size="11" font-weight="700" text-anchor="middle">06</text><text x="886" y="477" fill="#12161f" font-size="13.5" font-weight="600" text-anchor="start">Outcome log</text><text x="886" y="496" fill="#5b6472" font-size="11" font-weight="400" text-anchor="start">Recorded, not inferred</text><path d="M268,472 L248,472" fill="none" stroke="#9aa3b2" stroke-width="1.4" stroke-linecap="round" marker-end="url(#arrow-line)"/><path d="M468,472 L448,472" fill="none" stroke="#9aa3b2" stroke-width="1.4" stroke-linecap="round" marker-end="url(#arrow-line)"/><path d="M668,472 L648,472" fill="none" stroke="#9aa3b2" stroke-width="1.4" stroke-linecap="round" marker-end="url(#arrow-line)"/><path d="M868,472 L848,472" fill="none" stroke="#9aa3b2" stroke-width="1.4" stroke-linecap="round" marker-end="url(#arrow-line)"/><path d="M958,172 L958,420" fill="none" stroke="#9aa3b2" stroke-width="1.4" stroke-linecap="round" marker-end="url(#arrow-line)"/><text x="974" y="272" fill="#8b94a3" font-size="10.5" font-weight="400" text-anchor="start">acted on or not,</text><text x="974" y="287" fill="#8b94a3" font-size="10.5" font-weight="400" text-anchor="start">the outcome is logged</text><path d="M358,172 L358,216" fill="none" stroke="#a75b12" stroke-width="1.4" stroke-linecap="round" marker-end="url(#arrow-warn)" stroke-dasharray="5 4"/><text x="368" y="194" fill="#a75b12" font-size="10.5" font-weight="400" text-anchor="start">insufficient</text><rect x="240" y="222" width="236" height="66" rx="9" fill="#ffffff" stroke="#a75b12" stroke-width="1.4"/><text x="254" y="249" fill="#a75b12" font-size="13.5" font-weight="600" text-anchor="start">Fail closed</text><text x="254" y="269" fill="#5b6472" font-size="11" font-weight="400" text-anchor="start">No new directional advice</text><path d="M68,472 L48,472 Q36,472 36,460 L36,348 Q36,336 48,336 L546,336 Q558,336 558,324 L558,174" fill="none" stroke="#4a44c9" stroke-width="1.4" stroke-linecap="round" marker-end="url(#arrow-accent)" stroke-dasharray="6 5"/><text x="542" y="327" fill="#4a44c9" font-size="11" font-weight="600" text-anchor="end">Only approved rules feed back</text><path d="M52,570 L78,570" stroke="#9aa3b2" stroke-width="1.4" stroke-linecap="round" marker-end="url(#arrow-line)"/><text x="92" y="574" fill="#5b6472" font-size="11" font-weight="400" text-anchor="start">Evidence and outcome flow</text><path d="M291,570 L317,570" stroke="#4a44c9" stroke-width="1.4" stroke-linecap="round" stroke-dasharray="5 4" marker-end="url(#arrow-accent)"/><text x="331" y="574" fill="#5b6472" font-size="11" font-weight="400" text-anchor="start">Governed feedback</text><text x="1108" y="574" fill="#8b94a3" font-size="11" font-weight="400" text-anchor="end">No order is ever placed automatically.</text></svg>
