<svg xmlns="http://www.w3.org/2000/svg" width="1280" height="640" viewBox="0 0 1280 640" font-family='-apple-system,BlinkMacSystemFont,"Segoe UI","Helvetica Neue",Arial,sans-serif' role="img"><defs><marker id="arrow-line" viewBox="0 0 10 10" refX="8.5" refY="5" markerWidth="7" markerHeight="7" orient="auto-start-reverse"><path d="M1.5,1.5 L8.5,5 L1.5,8.5" fill="none" stroke="#9aa3b2" stroke-width="1.6" stroke-linecap="round" stroke-linejoin="round"/></marker><marker id="arrow-accent" viewBox="0 0 10 10" refX="8.5" refY="5" markerWidth="7" markerHeight="7" orient="auto-start-reverse"><path d="M1.5,1.5 L8.5,5 L1.5,8.5" fill="none" stroke="#4a44c9" stroke-width="1.6" stroke-linecap="round" stroke-linejoin="round"/></marker><marker id="arrow-warn" viewBox="0 0 10 10" refX="8.5" refY="5" markerWidth="7" markerHeight="7" orient="auto-start-reverse"><path d="M1.5,1.5 L8.5,5 L1.5,8.5" fill="none" stroke="#a75b12" stroke-width="1.6" stroke-linecap="round" stroke-linejoin="round"/></marker></defs><rect width="1280" height="640" fill="#ffffff"/><text x="84" y="172" fill="#12161f" font-size="66" font-weight="700" text-anchor="start">EvoStock Lab</text><text x="84" y="226" fill="#5b6472" font-size="26" font-weight="400" text-anchor="start">A stock research loop that grades its own past calls —</text><text x="84" y="264" fill="#5b6472" font-size="26" font-weight="400" text-anchor="start">and gates every rule behind evidence.</text><rect x="94" y="356" width="204" height="76" rx="11" fill="#ffffff" stroke="#d3d7de" stroke-width="1.2"/><rect x="179" y="368" width="34" height="24" rx="6" fill="#4a44c9"/><text x="196" y="385" fill="#ffffff" font-size="13.5" font-weight="700" text-anchor="middle">01</text><text x="196" y="416" fill="#12161f" font-size="17.5" font-weight="600" text-anchor="middle">Verified facts</text><rect x="316" y="356" width="204" height="76" rx="11" fill="#ffffff" stroke="#d3d7de" stroke-width="1.2"/><rect x="401" y="368" width="34" height="24" rx="6" fill="#4a44c9"/><text x="418" y="385" fill="#ffffff" font-size="13.5" font-weight="700" text-anchor="middle">02</text><text x="418" y="416" fill="#12161f" font-size="17.5" font-weight="600" text-anchor="middle">Integrity gate</text><path d="M301,394 L312,394" fill="none" stroke="#9aa3b2" stroke-width="1.4" stroke-linecap="round" marker-end="url(#arrow-line)"/><rect x="538" y="356" width="204" height="76" rx="11" fill="#ffffff" stroke="#d3d7de" stroke-width="1.2"/><rect x="623" y="368" width="34" height="24" rx="6" fill="#4a44c9"/><text x="640" y="385" fill="#ffffff" font-size="13.5" font-weight="700" text-anchor="middle">03</text><text x="640" y="416" fill="#12161f" font-size="17.5" font-weight="600" text-anchor="middle">Cross-review</text><path d="M523,394 L534,394" fill="none" stroke="#9aa3b2" stroke-width="1.4" stroke-linecap="round" marker-end="url(#arrow-line)"/><rect x="760" y="356" width="204" height="76" rx="11" fill="#ffffff" stroke="#d3d7de" stroke-width="1.2"/><rect x="845" y="368" width="34" height="24" rx="6" fill="#4a44c9"/><text x="862" y="385" fill="#ffffff" font-size="13.5" font-weight="700" text-anchor="middle">04</text><text x="862" y="416" fill="#12161f" font-size="17.5" font-weight="600" text-anchor="middle">Conditional advice</text><path d="M745,394 L756,394" fill="none" stroke="#9aa3b2" stroke-width="1.4" stroke-linecap="round" marker-end="url(#arrow-line)"/><rect x="982" y="356" width="204" height="76" rx="11" fill="#ffffff" stroke="#d3d7de" stroke-width="1.2"/><rect x="1067" y="368" width="34" height="24" rx="6" fill="#4a44c9"/><text x="1084" y="385" fill="#ffffff" font-size="13.5" font-weight="700" text-anchor="middle">05</text><text x="1084" y="416" fill="#12161f" font-size="17.5" font-weight="600" text-anchor="middle">You decide</text><path d="M967,394 L978,394" fill="none" stroke="#9aa3b2" stroke-width="1.4" stroke-linecap="round" marker-end="url(#arrow-line)"/><path d="M1084,436 L1084,474 Q1084,486 1072,486 L652,486 Q640,486 640,474 L640,438" fill="none" stroke="#4a44c9" stroke-width="1.4" stroke-linecap="round" marker-end="url(#arrow-accent)" stroke-dasharray="6 5"/><text x="862" y="512" fill="#4a44c9" font-size="16" font-weight="600" text-anchor="middle">outcomes scored at fixed windows — only approved rules feed back</text><text x="84" y="600" fill="#5b6472" font-size="18" font-weight="400" text-anchor="start">Claude Code / Codex plugin   ·   60-second offline demo   ·   MIT</text><text x="1196" y="600" fill="#8b94a3" font-size="16" font-weight="400" text-anchor="end">github.com/jiayx01/evostock-lab</text></svg>
